PathFileType	4	(X/Y/Z)	E:\MaartenAfschrift\ProcessCardiffData\Gait_Perturbation\osimData\Patient6\Static.trc
DataRate	CameraRate	NumFrames	NumMarkers	Units	OrigDataRate	OrigDataStartFrame	OrigNumFrames
200.000000	200.000000	7	59	m	200.000000	292	1167
Frame#	Times	LFHD			RFHD			LBHD			RBHD			C7			CLAV			LSHO			LUA1			LELB			LLA1			LWRA			LWRB			LFIN			RSHO			RUA1			RELB			RLA1			RWRA			RWRB			RFIN			LASI			RASI			RPSI			LPSI			LTHI			LTHI2			LTHI3			LKNE			LKNEmed			LTIB			LTIB2			LTIB3			LANK			LANKmed			LHEE			LTOE			LLatFoot			RTHI			RTHI2			RTHI3			RKNE			RKNEmed			RTIB			RTIB2			RTIB3			RANK			RANKmed			RHEE			RTOE			RLatFoot			Block1			Block2			Block3			Block4			*54			*55			*56			*57			*58
		X1	Y1	Z1	X2	Y2	Z2	X3	Y3	Z3	X4	Y4	Z4	X5	Y5	Z5	X6	Y6	Z6	X7	Y7	Z7	X8	Y8	Z8	X9	Y9	Z9	X10	Y10	Z10	X11	Y11	Z11	X12	Y12	Z12	X13	Y13	Z13	X14	Y14	Z14	X15	Y15	Z15	X16	Y16	Z16	X17	Y17	Z17	X18	Y18	Z18	X19	Y19	Z19	X20	Y20	Z20	X21	Y21	Z21	X22	Y22	Z22	X23	Y23	Z23	X24	Y24	Z24	X25	Y25	Z25	X26	Y26	Z26	X27	Y27	Z27	X28	Y28	Z28	X29	Y29	Z29	X30	Y30	Z30	X31	Y31	Z31	X32	Y32	Z32	X33	Y33	Z33	X34	Y34	Z34	X35	Y35	Z35	X36	Y36	Z36	X37	Y37	Z37	X38	Y38	Z38	X39	Y39	Z39	X40	Y40	Z40	X41	Y41	Z41	X42	Y42	Z42	X43	Y43	Z43	X44	Y44	Z44	X45	Y45	Z45	X46	Y46	Z46	X47	Y47	Z47	X48	Y48	Z48	X49	Y49	Z49	X50	Y50	Z50	X51	Y51	Z51	X52	Y52	Z52	X53	Y53	Z53	X54	Y54	Z54	X55	Y55	Z55	X56	Y56	Z56	X57	Y57	Z57	X58	Y58	Z58	X59	Y59	Z59

292	1.46	0.084475	1.5942	0.00039433	0.089463	1.5979	0.13403	-0.074331	1.5584	0.0069201	-0.050546	1.5571	0.14657	-0.078266	1.4017	0.059247	0.050561	1.3618	0.06141	-0.0048361	1.3621	-0.13013	0.010369	1.2137	-0.1628	0.0040727	1.0609	-0.1794	0.048442	0.95517	-0.18809	0.084041	0.85404	-0.16368	0.019328	0.84523	-0.19205	0.065159	0.80061	-0.20515	-0.0066372	1.3412	0.25923	0.018229	1.1777	0.27228	-0.0021742	1.0665	0.28382	0.042777	0.97015	0.30487	0.081078	0.84745	0.28869	0.011586	0.83887	0.30456	0.057077	0.796	0.32953	0.11057	0.92485	-0.057678	0.1187	0.92437	0.17827	-0.081482	0.95643	0.10064	-0.086694	0.95455	0.0092663	0.078804	0.65899	-0.10482	0.010274	0.64924	-0.13062	0.049861	0.6087	-0.11089	0.0076826	0.4578	-0.079615	-0.031255	0.45054	0.020931	-0.024847	0.24542	-0.096222	-0.078228	0.25007	-0.10838	-0.055479	0.20054	-0.095559	-0.067516	0.086636	-0.069613	-0.060089	0.09966	0.011411	-0.12242	0.037924	-0.02116	0.090822	0.052502	-0.034113	0.012348	0.029054	-0.10107	0.088438	0.66346	0.22624	0.033276	0.66184	0.25331	0.056541	0.62338	0.23355	-0.013995	0.46867	0.21687	-0.035691	0.46476	0.089605	-0.017131	0.26309	0.21623	-0.076635	0.2568	0.22656	-0.044785	0.21313	0.21564	-0.051072	0.094337	0.1822	-0.043548	0.10263	0.10005	-0.11237	0.037753	0.14693	0.097158	0.054765	0.13787	0.02448	0.021246	0.20651	0.51632	0.03546	-0.57688	-0.31261	0.02649	-0.57093	-0.36446	0.020889	0.64476	0.39799	0.034508	0.63736	-0.94391	1.1708	0.011121	0.033572	0.72973	0.48573	0.064619	0.63905	0.22953	0	0	0	0	0	0
293	1.465	0.084435	1.5942	0.00038344	0.089449	1.5979	0.13404	-0.074358	1.5584	0.0069858	-0.050579	1.5571	0.14657	-0.078315	1.4017	0.05918	0.050559	1.3618	0.061406	-0.0048607	1.3621	-0.13014	0.010414	1.2137	-0.16279	0.0040656	1.061	-0.1794	0.048452	0.95519	-0.18811	0.084008	0.85405	-0.16368	0.019364	0.84524	-0.19201	0.06507	0.80061	-0.20516	-0.0067001	1.3412	0.25922	0.018227	1.1778	0.27227	-0.0022041	1.0665	0.2838	0.042793	0.97016	0.30486	0.081051	0.84748	0.28864	0.011573	0.83886	0.30455	0.057097	0.79602	0.32949	0.11052	0.92485	-0.057694	0.11863	0.92438	0.17825	-0.081531	0.95645	0.10065	-0.086754	0.95456	0.0092802	0.078775	0.659	-0.10484	0.010163	0.64925	-0.13064	0.049829	0.6087	-0.11088	0.0076941	0.4578	-0.079595	-0.031237	0.45052	0.020859	-0.024848	0.24542	-0.096212	-0.078268	0.25004	-0.1084	-0.055504	0.20054	-0.095637	-0.067508	0.086632	-0.069569	-0.060096	0.099652	0.011413	-0.1224	0.037915	-0.021192	0.090821	0.052499	-0.034138	0.012374	0.029075	-0.10106	0.088435	0.66351	0.22625	0.033269	0.66184	0.25329	0.056551	0.62337	0.23352	-0.013992	0.46866	0.21687	-0.035722	0.46475	0.089558	-0.017122	0.26308	0.21621	-0.076905	0.25682	0.22672	-0.044676	0.21323	0.21542	-0.05113	0.094337	0.18222	-0.043592	0.10262	0.10002	-0.11235	0.037754	0.14696	0.097159	0.05476	0.13787	0.024486	0.021232	0.20651	0.51633	0.0355	-0.57689	-0.3126	0.026433	-0.57091	-0.36442	0.020875	0.64471	0.39804	0.034512	0.63735	-0.94388	1.1709	0.011073	0.03354	0.72991	0.48568	0.064563	0.63907	0.22952	0	0	0	0	0	0
294	1.47	0.084455	1.5942	0.00039483	0.089411	1.5978	0.13402	-0.074386	1.5584	0.0069901	-0.05062	1.5571	0.14654	-0.078315	1.4017	0.059197	0.050513	1.3618	0.061385	-0.0048924	1.3621	-0.13016	0.01039	1.2137	-0.16282	0.0040392	1.061	-0.17942	0.048394	0.9552	-0.18812	0.083941	0.85407	-0.1637	0.019334	0.84525	-0.19203	0.065052	0.80064	-0.20517	-0.0066929	1.3413	0.25923	0.018161	1.1777	0.27226	-0.0022318	1.0665	0.28378	0.042771	0.97019	0.30483	0.081054	0.84748	0.28861	0.011591	0.83889	0.3045	0.057103	0.79603	0.32945	0.11046	0.92487	-0.057699	0.11859	0.92442	0.17824	-0.081589	0.95642	0.10063	-0.086868	0.95456	0.0092861	0.078705	0.659	-0.10484	0.01014	0.64924	-0.13062	0.049806	0.60871	-0.11088	0.0076568	0.45779	-0.079618	-0.031276	0.45052	0.020852	-0.024869	0.24542	-0.096202	-0.078322	0.24999	-0.10838	-0.055496	0.20055	-0.095608	-0.067523	0.086634	-0.069531	-0.060065	0.099664	0.011407	-0.12241	0.037912	-0.021182	0.090793	0.0525	-0.034133	0.012331	0.02905	-0.10107	0.088395	0.66348	0.22622	0.033252	0.66185	0.25328	0.05653	0.62339	0.23354	-0.013999	0.46865	0.21685	-0.035736	0.46477	0.089553	-0.017122	0.26307	0.2162	-0.075977	0.25658	0.22625	-0.044325	0.21337	0.21481	-0.05113	0.094327	0.18223	-0.043566	0.10264	0.10003	-0.11234	0.037744	0.14694	0.097155	0.054762	0.13788	0.024489	0.021243	0.2065	0.51646	0.035623	-0.577	-0.31257	0.0264	-0.57088	-0.36451	0.02085	0.64478	0.39805	0.034542	0.63734	-0.94393	1.1709	0.011056	0.033519	0.72996	0.48552	0.064578	0.63909	0.22951	0	0	0	0	0	0
295	1.475	0.084432	1.5942	0.00039483	0.089403	1.5979	0.13403	-0.074385	1.5584	0.0069791	-0.050646	1.5571	0.14652	-0.078364	1.4017	0.059204	0.050481	1.3619	0.061388	-0.0048834	1.3622	-0.13015	0.01041	1.2138	-0.16281	0.0039638	1.061	-0.17944	0.048292	0.9552	-0.18815	0.083887	0.85408	-0.16371	0.019254	0.84526	-0.19206	0.064962	0.80064	-0.20518	-0.006811	1.3412	0.25916	0.018088	1.1777	0.27224	-0.0022402	1.0666	0.28378	0.042772	0.9702	0.30479	0.081053	0.8475	0.28855	0.011547	0.83888	0.30447	0.057109	0.79603	0.32939	0.11038	0.92488	-0.057741	0.11854	0.92442	0.17821	-0.081666	0.95644	0.10064	-0.086901	0.95457	0.0092771	0.078674	0.65901	-0.10486	0.010069	0.64924	-0.13064	0.049749	0.6087	-0.1109	0.0076639	0.45781	-0.079628	-0.031315	0.45056	0.020917	-0.024856	0.24542	-0.096193	-0.078318	0.24994	-0.10836	-0.055479	0.20053	-0.095655	-0.067548	0.086639	-0.069528	-0.060096	0.099649	0.01142	-0.12241	0.037904	-0.021165	0.090793	0.052499	-0.034131	0.012396	0.029052	-0.10109	0.088414	0.66351	0.22622	0.033248	0.66183	0.25326	0.056499	0.62339	0.2335	-0.013999	0.46866	0.21684	-0.035842	0.46476	0.089515	-0.017107	0.26308	0.2162	-0.07595	0.2566	0.22625	-0.044784	0.2131	0.21556	-0.051126	0.094336	0.18221	-0.043602	0.10262	0.10003	-0.11241	0.037736	0.14699	0.097166	0.054795	0.13789	0.024478	0.021262	0.20652	0.51634	0.035458	-0.57689	-0.31369	0.027653	-0.56918	-0.36447	0.020871	0.64475	0.39799	0.034538	0.63734	-0.94392	1.1709	0.011008	0.033467	0.72991	0.48546	0.064523	0.63905	0.22947	0	0	0	0	0	0
296	1.48	0.084409	1.5942	0.00038839	0.089372	1.5978	0.13402	-0.074402	1.5585	0.0068927	-0.050691	1.5571	0.1465	-0.078367	1.4017	0.059231	0.050454	1.3619	0.061376	-0.0049361	1.3622	-0.13016	0.01035	1.2138	-0.16284	0.0039199	1.061	-0.17948	0.048245	0.95521	-0.18816	0.083814	0.85409	-0.16373	0.019228	0.84529	-0.19206	0.064926	0.80065	-0.20521	-0.0067853	1.3413	0.25924	0.018106	1.1778	0.27222	-0.002241	1.0666	0.28375	0.042761	0.97022	0.30476	0.08106	0.84751	0.28851	0.011549	0.83889	0.30445	0.057114	0.79605	0.32936	0.11032	0.9249	-0.057727	0.11852	0.92445	0.17819	-0.081712	0.95643	0.10064	-0.086954	0.95458	0.0092624	0.078632	0.65902	-0.10487	0.010031	0.64927	-0.13067	0.049717	0.60872	-0.11091	0.0076582	0.45781	-0.079637	-0.031308	0.45053	0.020867	-0.024871	0.24542	-0.096217	-0.078372	0.24988	-0.10835	-0.055541	0.20053	-0.095648	-0.067536	0.086633	-0.069494	-0.06011	0.099633	0.011419	-0.12241	0.037909	-0.021173	0.090813	0.052505	-0.034118	0.012396	0.029058	-0.10103	0.088379	0.6635	0.22619	0.033231	0.66184	0.25323	0.056492	0.62339	0.23349	-0.014015	0.46867	0.21684	-0.035776	0.46474	0.08954	-0.017134	0.26307	0.2162	-0.076509	0.25679	0.22648	-0.045185	0.21303	0.21646	-0.051123	0.094335	0.1822	-0.043617	0.1026	0.10001	-0.1124	0.037714	0.14695	0.09716	0.054781	0.13788	0.024482	0.021267	0.20654	0.51621	0.035402	-0.57688	-0.31383	0.027673	-0.56908	-0.36448	0.020881	0.64476	0.39801	0.034524	0.63736	-0.9438	1.1709	0.010938	0.033407	0.72994	0.48547	0.06456	0.63909	0.22945	0	0	0	0	0	0
297	1.485	0.084398	1.5942	0.00037392	0.089328	1.5979	0.13403	-0.074406	1.5585	0.006901	-0.050714	1.5572	0.14646	-0.0784	1.4017	0.059257	0.050436	1.3619	0.061357	-0.0049155	1.3622	-0.13017	0.010311	1.2138	-0.16287	0.0038647	1.061	-0.1795	0.048212	0.95525	-0.18819	0.083769	0.8541	-0.16375	0.019197	0.84527	-0.19204	0.064873	0.80068	-0.20524	-0.0068724	1.3413	0.25914	0.018108	1.1778	0.27223	-0.0022375	1.0666	0.28374	0.04278	0.97024	0.30474	0.080992	0.84752	0.28847	0.011576	0.83892	0.30441	0.057081	0.79605	0.32931	0.11027	0.92493	-0.057737	0.11844	0.92447	0.17816	-0.081784	0.95646	0.10064	-0.087001	0.95459	0.009258	0.078594	0.65903	-0.10489	0.010015	0.64926	-0.13065	0.049663	0.6087	-0.11093	0.0076112	0.45779	-0.079631	-0.03134	0.45054	0.020852	-0.024871	0.24541	-0.096193	-0.07837	0.24992	-0.10832	-0.055519	0.20051	-0.095672	-0.067548	0.086629	-0.069471	-0.0601	0.099644	0.011415	-0.12243	0.037904	-0.021171	0.090796	0.052498	-0.03414	0.012346	0.029047	-0.10104	0.088359	0.66351	0.22618	0.033203	0.66184	0.25322	0.05648	0.6234	0.23349	-0.014016	0.46864	0.21683	-0.035807	0.46476	0.089521	-0.017121	0.26307	0.21618	-0.076865	0.25678	0.22666	-0.045267	0.21294	0.21663	-0.051116	0.094329	0.1822	-0.043608	0.10262	0.10002	-0.11239	0.037716	0.14699	0.097169	0.05479	0.13786	0.024474	0.021242	0.20653	0.51627	0.035403	-0.57693	-0.31267	0.026475	-0.5708	-0.3645	0.020893	0.64479	0.3978	0.034475	0.63737	-0.94362	1.1708	0.01087	0.033277	0.72988	0.48565	0.064443	0.63911	0.22933	0	0	0	0	0	0
298	1.49	0.084383	1.5942	0.00038997	0.089305	1.5978	0.13403	-0.074402	1.5585	0.0068763	-0.050743	1.5572	0.14647	-0.078409	1.4017	0.059266	0.0504	1.3619	0.061391	-0.0049775	1.3622	-0.13021	0.010288	1.2138	-0.16287	0.0038305	1.061	-0.17951	0.048159	0.95526	-0.18819	0.083725	0.85412	-0.16376	0.019119	0.84531	-0.1921	0.064781	0.80068	-0.20527	-0.0068651	1.3413	0.25921	0.018063	1.1778	0.2722	-0.0022676	1.0666	0.28372	0.042785	0.97023	0.3047	0.081051	0.84755	0.28843	0.01158	0.8389	0.30438	0.057105	0.79605	0.32928	0.11021	0.92493	-0.057746	0.11839	0.92448	0.17814	-0.081811	0.95647	0.10066	-0.087099	0.95459	0.0092808	0.078491	0.65904	-0.10494	0.0099434	0.64929	-0.13066	0.049643	0.60873	-0.11092	0.0076072	0.45779	-0.079628	-0.031383	0.45053	0.020858	-0.024892	0.24541	-0.096201	-0.078356	0.24989	-0.10832	-0.055508	0.20051	-0.095673	-0.067548	0.086616	-0.069445	-0.060111	0.099636	0.011404	-0.12243	0.037902	-0.021167	0.090769	0.052512	-0.034121	0.012376	0.029063	-0.10104	0.088327	0.66351	0.22617	0.033193	0.66185	0.25321	0.056488	0.62341	0.23347	-0.01402	0.46865	0.21682	-0.035816	0.46475	0.08952	-0.017151	0.26307	0.21618	-0.077018	0.25676	0.22673	-0.044349	0.21338	0.21482	-0.051134	0.094304	0.1822	-0.043602	0.10261	0.10003	-0.1124	0.037708	0.14698	0.097154	0.054789	0.13787	0.024473	0.02125	0.20651	0.51629	0.035421	-0.5769	-0.31255	0.026418	-0.57092	-0.36447	0.02088	0.64474	0.398	0.034531	0.63733	-0.94371	1.1709	0.010875	0.033209	0.72985	0.48572	0.064513	0.63905	0.22943	0	0	0	0	0	0
